<svg width="18" height="18" viewBox="0 0 18 18" fill="none" xmlns="http://www.w3.org/2000/svg">
<g clip-path="url(#clip0)">
<path fill-rule="evenodd" clip-rule="evenodd" d="M8.95617 13.4608C9.06457 13.3888 9.17296 13.3168 9.28108 13.2444L9.36492 13.2755C9.36746 13.3948 9.37018 13.5141 9.37289 13.6334V13.6334V13.6334V13.6335V13.6335V13.6335V13.6335V13.6335V13.6335C9.37906 13.9043 9.38522 14.175 9.38935 14.4458C9.39591 14.8751 9.49348 14.9481 9.90729 15.0583C10.2824 15.1623 10.6448 15.3073 10.9881 15.4908C11.2693 15.6378 11.4066 15.6512 11.6236 15.4043C11.6858 15.3335 11.7477 15.2624 11.8096 15.1914C11.9027 15.0847 11.9957 14.9779 12.0897 14.872C12.233 14.7106 12.3769 14.5496 12.5207 14.3886L12.5208 14.3886L12.5208 14.3885L12.5209 14.3885L12.5209 14.3884L12.521 14.3884L12.521 14.3883L12.521 14.3883L12.5211 14.3882L12.5211 14.3882L12.5211 14.3882L12.5212 14.3881L12.5212 14.3881L12.5212 14.3881L12.5212 14.3881L12.5212 14.3881L12.5213 14.388C12.8007 14.0753 13.0802 13.7625 13.3557 13.4463C13.4837 13.2993 13.6074 13.1485 13.7311 12.9978C13.8791 12.8173 14.0271 12.6369 14.1825 12.463C14.3363 12.2911 14.4965 12.1245 14.6567 11.958C14.9155 11.689 15.1741 11.4202 15.4049 11.1292C16.0466 10.3241 16.7501 9.57025 17.5091 8.87455C17.7918 8.61396 17.7585 8.26926 17.4266 8.09899C17.3544 8.06624 17.2885 8.0209 17.2321 7.9651C17.1229 7.8436 17.0132 7.72246 16.9035 7.60132C16.534 7.1932 16.1644 6.785 15.8119 6.36254C15.5037 5.99306 15.2108 5.61077 14.9179 5.22849C14.7946 5.06757 14.6713 4.90666 14.5469 4.7467C14.4043 4.56339 14.262 4.37981 14.1198 4.19622L14.1197 4.19617L14.1196 4.19603C13.8554 3.85507 13.5912 3.51412 13.3248 3.17492C13.2054 3.02289 13.0835 2.8728 12.9615 2.72273L12.9615 2.72267L12.9615 2.72266L12.9615 2.72266L12.9615 2.72265L12.9615 2.72264L12.9615 2.72263L12.9615 2.72263L12.9615 2.72262L12.9614 2.72261C12.8066 2.53207 12.6519 2.34154 12.5022 2.14703C12.2451 1.83741 12.0098 1.51032 11.798 1.16812C11.7305 1.02006 11.6039 0.907207 11.4491 0.857163C11.2942 0.807119 11.1255 0.824499 10.9841 0.905051C10.714 1.07936 10.4338 1.23758 10.145 1.37888C9.74528 1.55918 9.53588 1.81828 9.54877 2.28071C9.55787 2.60687 9.53689 2.93384 9.51591 3.26086L9.5159 3.2609L9.5159 3.26093L9.5159 3.26097L9.5159 3.26101L9.51589 3.26105L9.51589 3.26109L9.51589 3.26113L9.51588 3.26117C9.50602 3.41487 9.49616 3.56858 9.48943 3.72222C9.48256 3.8789 9.43902 3.96945 9.26705 3.86638C9.15133 3.79702 9.0357 3.72749 8.92007 3.65797L8.91984 3.65783C8.67058 3.50795 8.42131 3.35808 8.17109 3.20981C7.95439 3.0814 7.7362 2.95529 7.51573 2.83348C7.33519 2.73373 7.15376 2.63554 6.97234 2.53735C6.63174 2.35302 6.29116 2.1687 5.95653 1.97412C5.7455 1.85142 5.54301 1.71415 5.34048 1.57684L5.34045 1.57682L5.34044 1.57681C5.22569 1.49902 5.11092 1.42121 4.99458 1.34604C4.86494 1.26228 4.73544 1.17829 4.60593 1.09431L4.60585 1.09425L4.60516 1.09381C4.07097 0.747377 3.53674 0.400924 2.99308 0.0700121C2.84868 0.00259205 2.68647 -0.0167886 2.53025 0.0147118C2.46693 0.0241102 2.41093 0.0717258 2.35368 0.12041C2.31352 0.15456 2.27274 0.189236 2.22838 0.211615C2.09776 0.277519 1.96741 0.34413 1.83705 0.410748C1.38782 0.640324 0.938417 0.869985 0.476671 1.07107C0.100637 1.23483 0.033577 1.27476 0.0500107 1.67828C0.0509605 1.70158 0.0494728 1.72497 0.0479832 1.74836C0.0472374 1.7601 0.0464916 1.77183 0.0460529 1.78355C0.0409431 1.92045 0.0342751 2.05736 0.027607 2.19426L0.0276012 2.19436C0.0127697 2.49891 -0.00206184 2.80347 0.000268936 3.10789C0.00489426 3.71132 0.0219669 4.31467 0.0390396 4.918V4.91809V4.91818V4.91827V4.91835V4.91844V4.91853V4.91862V4.91871C0.0441246 5.09821 0.0492096 5.27772 0.0539665 5.45722C0.055521 5.51597 0.0627937 5.57453 0.0700703 5.63313C0.075716 5.67859 0.0813637 5.72407 0.0843449 5.76968C0.0954418 5.93934 0.107481 6.10898 0.11952 6.27862L0.119526 6.27873L0.119532 6.27884L0.119537 6.27895L0.119543 6.27906L0.119549 6.27917L0.119555 6.27928L0.11956 6.27939L0.119566 6.2795L0.119572 6.27955C0.151455 6.72903 0.183338 7.17852 0.1978 7.62857C0.205063 7.85454 0.190523 8.08109 0.175974 8.30776V8.30778V8.3078V8.30782V8.30785V8.30787V8.30789V8.30792V8.30794C0.166555 8.45462 0.157133 8.60135 0.153622 8.74802C0.137693 9.41377 0.126469 10.0796 0.115246 10.7455L0.108353 11.152C0.104956 11.35 0.100924 11.548 0.0968914 11.7459V11.746V11.746V11.746V11.7461V11.7461V11.7462V11.7462V11.7462C0.0861263 12.2749 0.0753613 12.8037 0.0766964 13.3323C0.0786915 14.1244 0.084013 14.9174 0.130646 15.7075C0.156271 15.9203 0.265249 16.1143 0.433691 16.247C0.69286 16.4316 0.968992 16.592 1.24531 16.7525L1.24535 16.7526L1.24542 16.7526L1.2455 16.7527L1.24557 16.7527L1.24565 16.7527L1.24572 16.7528L1.24579 16.7528L1.24587 16.7529L1.24594 16.7529C1.42032 16.8542 1.59478 16.9556 1.76508 17.0631C1.86617 17.1269 1.95807 17.2051 2.05005 17.2833C2.12995 17.3512 2.20991 17.4192 2.296 17.4778C2.53996 17.6442 2.9597 17.7604 3.25337 17.4561C3.56682 17.1506 3.90931 16.8765 4.27597 16.6376C4.60608 16.4085 4.94307 16.1893 5.28007 15.9702C5.55791 15.7895 5.83575 15.6089 6.10976 15.4226C6.53713 15.1321 6.96054 14.8357 7.38396 14.5394L7.38415 14.5393C7.66988 14.3393 7.95561 14.1393 8.24257 13.9411C8.47848 13.7782 8.71732 13.6195 8.95617 13.4608ZM2.93167 1.26399V1.26396V1.26393V1.2639V1.26387V1.26384V1.2638V1.26377V1.26374C2.9334 1.07439 2.93516 0.882243 2.93516 0.686081C3.01571 0.733795 3.09167 0.777989 3.16429 0.820237L3.16454 0.820382L3.16457 0.820396L3.16458 0.820401C3.313 0.906747 3.44747 0.984973 3.57854 1.06853C3.94248 1.30054 4.30559 1.53387 4.66869 1.76721C5.10165 2.04543 5.53461 2.32365 5.96899 2.59963L6.11106 2.6899L6.11107 2.68991L6.11108 2.68991L6.11109 2.68992L6.1111 2.68993C6.82642 3.14448 7.54183 3.5991 8.26521 4.04058C8.65107 4.27606 9.04578 4.49714 9.44042 4.71818L9.4409 4.71845C9.55567 4.78274 9.67044 4.84702 9.78498 4.91165C9.84867 4.94759 9.91228 4.98371 9.9759 5.01983L9.97617 5.01998C10.2693 5.18645 10.5627 5.35301 10.8644 5.50239C11.14 5.6388 11.2065 5.5675 11.4031 5.35663L11.4123 5.34684C11.5919 5.15424 11.5902 4.96223 11.5882 4.74353L11.5878 4.69047C11.587 4.47376 11.5967 4.25691 11.6065 4.04012L11.6065 4.0401C11.6182 3.77745 11.63 3.51487 11.623 3.25271C11.6142 2.92266 11.5824 2.59322 11.5506 2.26376C11.5356 2.10774 11.5205 1.95172 11.5079 1.79561C11.5073 1.78745 11.5148 1.77862 11.5257 1.76575C11.5321 1.75829 11.5396 1.74946 11.5474 1.73862C12.3727 2.68815 13.1324 3.68966 13.893 4.69228C14.9036 6.02457 15.9157 7.35882 17.0852 8.57565L11.6747 14.6597L11.5706 14.6207C11.5506 14.4885 11.529 14.3564 11.5075 14.2243L11.5075 14.2242L11.5075 14.2242L11.5075 14.2242L11.5075 14.2242L11.5075 14.2242L11.5074 14.2242L11.5074 14.2242L11.5074 14.2242C11.458 13.9213 11.4086 13.6185 11.3786 13.3137C11.3593 13.1176 11.3544 12.92 11.3495 12.7225V12.7225C11.3444 12.5126 11.3392 12.3028 11.3167 12.0948C11.2981 11.9341 11.2162 11.7873 11.0891 11.687C11.0036 11.6324 10.7966 11.6934 10.685 11.7661C9.81758 12.3347 8.95494 12.9104 8.09707 13.4932C7.89692 13.6292 7.70124 13.7717 7.50556 13.9143L7.50553 13.9143L7.5055 13.9144L7.50548 13.9144L7.50545 13.9144L7.50542 13.9144L7.5054 13.9144L7.50537 13.9144L7.50535 13.9145L7.50532 13.9145C7.3046 14.0607 7.10388 14.207 6.89833 14.3461C6.70283 14.4784 6.50253 14.6036 6.30222 14.7289L6.30219 14.7289L6.30217 14.7289L6.30214 14.7289L6.30212 14.7289L6.30209 14.7289L6.30207 14.729L6.30204 14.729L6.30201 14.729L6.30199 14.729C6.09575 14.8579 5.88952 14.9869 5.68855 15.1236C5.39445 15.3235 5.10591 15.5317 4.81737 15.7399L4.81736 15.7399L4.81735 15.7399L4.81735 15.7399L4.81734 15.7399L4.81734 15.7399L4.81733 15.7399L4.81733 15.7399L4.81732 15.7399L4.8173 15.7399L4.81727 15.7399L4.81725 15.74L4.81723 15.74L4.81721 15.74L4.81718 15.74L4.81716 15.74L4.81714 15.74C4.65162 15.8594 4.48609 15.9789 4.31951 16.0967C4.0081 16.3171 3.69552 16.5358 3.36231 16.769C3.21099 16.8749 3.05541 16.9837 2.89375 17.0971C2.89375 17.0202 2.89355 16.9539 2.89337 16.8945V16.8944V16.8944V16.8944V16.8943V16.8943V16.8943V16.8942V16.8942C2.89303 16.7833 2.89277 16.6965 2.89403 16.6097L2.8992 16.2528C2.90735 15.6871 2.91551 15.1214 2.92594 14.5558C2.94468 13.5532 2.96464 12.5506 2.98582 11.5481C2.99822 10.9485 3.01273 10.349 3.02933 9.74957C3.03785 9.44211 3.04746 9.13468 3.05707 8.82725V8.82723V8.82722V8.8272V8.82719V8.82717V8.82716V8.82715V8.82713C3.07002 8.41281 3.08297 7.99849 3.09324 7.5841C3.1023 7.21888 3.10187 6.85335 3.1009 6.48797L3.10066 6.29458C3.1005 5.99608 3.10034 5.69745 3.08652 5.39953C3.06789 4.99781 3.0458 4.59624 3.02371 4.19467L3.0237 4.19455L3.02369 4.19442L3.02369 4.19429L3.02368 4.19417L3.02368 4.19404L3.02367 4.19392L3.02367 4.19379L3.02366 4.19367C2.99214 3.62073 2.96062 3.0478 2.93915 2.47449C2.92423 2.07597 2.92789 1.67676 2.93167 1.26428V1.26424V1.26421V1.26417V1.26414V1.2641V1.26406V1.26403V1.26399ZM1.99829 0.903191C1.75926 0.955713 1.71993 1.11766 1.72545 1.31476C1.72945 1.45764 1.73371 1.60052 1.73798 1.7434L1.73798 1.74348L1.73798 1.74356L1.73799 1.74364L1.73799 1.74372L1.73799 1.7438L1.738 1.74388L1.738 1.74396L1.738 1.74404C1.75179 2.20573 1.76558 2.66744 1.7705 3.12924C1.7746 3.5132 1.77363 3.8972 1.77266 4.2812C1.7718 4.62364 1.77094 4.96608 1.77366 5.30848C1.77534 5.5189 1.78224 5.72934 1.78914 5.93976V5.93978V5.93981V5.93983V5.93986V5.93988V5.93991V5.93993V5.93996V5.93999V5.94002V5.94005V5.94008V5.94011V5.94014C1.79874 6.23258 1.80833 6.52497 1.80388 6.8172C1.79818 7.1911 1.7843 7.5649 1.77042 7.93869L1.77042 7.93875L1.77042 7.93882C1.75402 8.38052 1.73762 8.8222 1.73472 9.264C1.73162 9.73674 1.74403 10.2096 1.75645 10.6824C1.76437 10.9839 1.77228 11.2855 1.77618 11.587C1.77747 11.6869 1.76732 11.7869 1.75717 11.8869V11.887V11.887V11.887V11.887V11.887V11.887V11.887C1.74725 11.9847 1.73734 12.0824 1.73808 12.18C1.74466 13.0573 1.75618 13.9345 1.77265 14.8116C1.77942 15.1858 1.79103 15.5599 1.80263 15.934C1.808 16.107 1.81337 16.28 1.81826 16.453C1.81872 16.4693 1.8186 16.4856 1.81847 16.503L1.81834 16.529L2.03438 16.611C2.04249 16.5455 2.05171 16.4818 2.06076 16.4191L2.06077 16.4191C2.08006 16.2857 2.09861 16.1574 2.1041 16.0285C2.13105 15.3969 2.15076 14.7648 2.16774 14.1328C2.18285 13.5703 2.19387 13.0077 2.20079 12.445C2.20488 12.134 2.20524 11.823 2.20559 11.512V11.5117C2.20575 11.3735 2.20591 11.2353 2.20639 11.0971C2.20691 10.9501 2.20868 10.8031 2.21045 10.6561C2.21447 10.3221 2.21849 9.98801 2.2078 9.65442C2.19985 9.40645 2.18159 9.15878 2.16333 8.91112C2.14373 8.6453 2.12414 8.3795 2.11729 8.11335C2.10864 7.77678 2.11025 7.43995 2.11186 7.10312C2.11342 6.77515 2.11499 6.44719 2.10708 6.11946C2.09369 5.56441 2.07173 5.00959 2.04977 4.45475L2.04977 4.45468L2.04977 4.45461L2.04976 4.45454L2.04976 4.45447L2.04976 4.4544L2.04976 4.45433L2.04975 4.45426L2.04974 4.45387L2.04972 4.45349L2.04971 4.4531L2.0497 4.45272L2.04968 4.45233C2.03576 4.10069 2.02184 3.74904 2.01011 3.39734C1.99051 2.80956 1.97478 2.22157 1.96662 1.63354C1.96447 1.47811 1.97397 1.32251 1.98423 1.15443C1.98914 1.074 1.99423 0.990698 1.99829 0.903191ZM1.47964 16.1423L1.35734 16.1692C1.34578 16.1495 1.33143 16.13 1.31707 16.1106L1.31706 16.1105C1.28617 16.0686 1.25527 16.0266 1.25226 15.9828C1.24321 15.8515 1.23396 15.7203 1.22471 15.5891C1.17901 14.941 1.1333 14.2926 1.11268 13.6436C1.10427 13.3791 1.12063 13.1139 1.13699 12.8486L1.137 12.8486L1.137 12.8485C1.14858 12.6608 1.16016 12.473 1.16298 12.2853C1.16623 12.0693 1.1608 11.8531 1.15538 11.6369C1.14998 11.422 1.14459 11.207 1.14772 10.9922C1.15049 10.8016 1.16171 10.6111 1.17294 10.4206C1.18637 10.1925 1.19981 9.96446 1.19873 9.73644C1.19786 9.5542 1.18015 9.37211 1.16243 9.18996C1.14659 9.02721 1.13075 8.86441 1.12693 8.70142C1.11869 8.35018 1.12156 7.99868 1.12442 7.64718L1.12443 7.64639C1.12579 7.47875 1.12716 7.31111 1.12732 7.1435C1.12737 7.08941 1.12471 7.03532 1.12206 6.98122V6.9812V6.98118V6.98116V6.98113V6.98111V6.98109L1.12204 6.98081L1.12203 6.98052L1.12202 6.98024C1.12041 6.94736 1.11879 6.91448 1.11779 6.8816C1.09916 6.24676 1.08 5.61193 1.06031 4.97712C1.05604 4.83942 1.05055 4.70173 1.04507 4.56404V4.56399V4.56395V4.5639V4.56386V4.56381V4.56377C1.03429 4.29333 1.02351 4.0229 1.02194 3.75241C1.01804 3.0745 1.0196 2.39632 1.0364 1.71868C1.02491 1.62583 1.05548 1.53269 1.11976 1.4647C1.18405 1.39672 1.27533 1.36099 1.36869 1.36728C1.48292 4.4022 1.47436 7.43493 1.4658 10.4665V10.4668C1.46046 12.359 1.45512 14.2507 1.47964 16.1423ZM0.740038 12.2127L0.855465 12.2098C0.898071 9.4409 0.816368 6.67342 0.734535 3.90153V3.90151V3.90149V3.90146V3.90144V3.90141C0.713175 3.1779 0.691807 2.45408 0.672638 1.72985C0.587814 1.87426 0.534986 2.03519 0.517721 2.20177C0.509638 2.75068 0.520475 3.30023 0.538368 3.84908C0.55205 4.26851 0.56946 4.68783 0.58687 5.10715L0.586876 5.10722C0.609671 5.65629 0.632463 6.20535 0.646887 6.75464C0.658508 7.19739 0.660599 7.64037 0.662689 8.08336V8.08362C0.664421 8.45098 0.666153 8.81835 0.673319 9.18559C0.680252 9.54083 0.694157 9.89593 0.708063 10.251C0.719408 10.5408 0.730753 10.8305 0.738312 11.1203C0.744865 11.3712 0.743202 11.6224 0.741537 11.8736C0.740788 11.9866 0.740038 12.0997 0.740038 12.2127ZM2.25091 1.15338C2.24527 0.991754 2.23888 0.809072 2.43683 0.739666C2.63765 3.06719 2.57486 5.38902 2.51304 7.67469L2.51304 7.67476C2.49795 8.23295 2.48291 8.78897 2.47179 9.3424C2.46205 9.24607 2.45012 9.14406 2.43772 9.038C2.40808 8.78455 2.37575 8.50797 2.36408 8.23051C2.35064 7.91071 2.35302 7.59026 2.3554 7.26979V7.26977V7.26976V7.26975V7.26974L2.35541 7.26953C2.35662 7.10565 2.35784 6.94177 2.35694 6.77797C2.35585 6.58092 2.34927 6.38384 2.34166 6.18691C2.33209 5.93921 2.3214 5.69154 2.3107 5.44386V5.44383V5.4438V5.44377V5.44374C2.28799 4.91788 2.26528 4.39203 2.25334 3.86592C2.24603 3.54395 2.25644 3.22157 2.26685 2.89921V2.89919V2.89916V2.89914L2.26686 2.89902V2.89899V2.89896V2.89893V2.8989C2.27122 2.76386 2.27558 2.62883 2.27864 2.49383C2.27914 2.4716 2.28345 2.44814 2.28772 2.42487C2.29522 2.38401 2.30261 2.34375 2.28912 2.31175C2.18267 2.05929 2.20697 1.80327 2.23125 1.54748C2.24345 1.41892 2.25564 1.29041 2.25123 1.16244L2.25091 1.15338ZM10.2103 4.44704L10.3341 4.38915L10.1978 1.98407L10.1297 1.98238C10.1133 2.01984 10.1013 2.05905 10.0938 2.09925C10.0829 2.25172 10.0711 2.40418 10.0594 2.55664L10.0593 2.55683C10.0219 3.04294 9.98437 3.52909 9.97295 4.01584C9.97067 4.11293 10.0437 4.21179 10.1168 4.31065C10.1504 4.35617 10.184 4.40169 10.2103 4.44704ZM0.868475 15.7981L0.746443 15.8157C0.704987 15.7167 0.677834 15.6123 0.665798 15.5056C0.690861 14.7358 0.727547 13.9664 0.771173 13.1971C0.869492 14.0604 0.90202 14.9299 0.868475 15.7981ZM9.87189 14.389L9.968 14.4242C9.97893 14.4122 9.99275 14.4002 10.0066 14.3882L10.0066 14.3882C10.0363 14.3625 10.0661 14.3367 10.067 14.31C10.1029 13.8127 10.0365 13.3132 9.87189 12.8425V14.389ZM10.7498 4.19267L10.6636 4.19948L10.5716 2.08694L10.6485 2.0842L10.7498 4.19267Z" fill="#EEC942"/>
</g>
<defs>
<clipPath id="clip0">
<rect width="1680" height="1187" fill="white" transform="translate(-496 -711)"/>
</clipPath>
</defs>
</svg>
