<svg width="593" height="374" viewBox="0 0 593 374" fill="none" xmlns="http://www.w3.org/2000/svg">
<g clip-path="url(#clip0)">
<circle cx="405.316" cy="187.845" r="186.652" transform="rotate(38.5073 405.316 187.845)" stroke="#2F353B" stroke-width="1.5"/>
<circle cx="396.932" cy="187.812" r="186.652" transform="rotate(38.5073 396.932 187.812)" stroke="#2F353B" stroke-width="1.5"/>
<circle cx="388.548" cy="187.782" r="186.652" transform="rotate(38.5073 388.548 187.782)" stroke="#2F353B" stroke-width="1.5"/>
<circle cx="380.164" cy="187.753" r="186.652" transform="rotate(38.5073 380.164 187.753)" stroke="#2F353B" stroke-width="1.5"/>
<circle cx="371.78" cy="187.721" r="186.652" transform="rotate(38.5073 371.78 187.721)" stroke="#2F353B" stroke-width="1.5"/>
<circle cx="363.396" cy="187.691" r="186.652" transform="rotate(38.5073 363.396 187.691)" stroke="#2F353B" stroke-width="1.5"/>
<circle cx="355.011" cy="187.659" r="186.652" transform="rotate(38.5073 355.011 187.659)" stroke="#2F353B" stroke-width="1.5"/>
<circle cx="346.627" cy="187.629" r="186.652" transform="rotate(38.5073 346.627 187.629)" stroke="#2F353B" stroke-width="1.5"/>
<circle cx="338.243" cy="187.598" r="186.652" transform="rotate(38.5073 338.243 187.598)" stroke="#2F353B" stroke-width="1.5"/>
<circle cx="329.859" cy="187.567" r="186.652" transform="rotate(38.5073 329.859 187.567)" stroke="#2F353B" stroke-width="1.5"/>
<circle cx="321.475" cy="187.536" r="186.652" transform="rotate(38.5073 321.475 187.536)" stroke="#2F353B" stroke-width="1.5"/>
<circle cx="313.091" cy="187.506" r="186.652" transform="rotate(38.5073 313.091 187.506)" stroke="#2F353B" stroke-width="1.5"/>
<circle cx="304.707" cy="187.474" r="186.652" transform="rotate(38.5073 304.707 187.474)" stroke="#2F353B" stroke-width="1.5"/>
<circle cx="296.323" cy="187.443" r="186.652" transform="rotate(38.5073 296.323 187.443)" stroke="#2F353B" stroke-width="1.5"/>
<circle cx="287.938" cy="187.413" r="186.652" transform="rotate(38.5073 287.938 187.413)" stroke="#2F353B" stroke-width="1.5"/>
<circle cx="279.554" cy="187.382" r="186.652" transform="rotate(38.5073 279.554 187.382)" stroke="#2F353B" stroke-width="1.5"/>
<circle cx="271.17" cy="187.352" r="186.652" transform="rotate(38.5073 271.17 187.352)" stroke="#2F353B" stroke-width="1.5"/>
<circle cx="262.786" cy="187.32" r="186.652" transform="rotate(38.5073 262.786 187.32)" stroke="#2F353B" stroke-width="1.5"/>
<circle cx="254.402" cy="187.289" r="186.652" transform="rotate(38.5073 254.402 187.289)" stroke="#2F353B" stroke-width="1.5"/>
<circle cx="246.017" cy="187.259" r="186.652" transform="rotate(38.5073 246.017 187.259)" stroke="#2F353B" stroke-width="1.5"/>
<circle cx="237.633" cy="187.228" r="186.652" transform="rotate(38.5073 237.633 187.228)" stroke="#2F353B" stroke-width="1.5"/>
<circle cx="229.249" cy="187.197" r="186.652" transform="rotate(38.5073 229.249 187.197)" stroke="#2F353B" stroke-width="1.5"/>
<circle cx="220.865" cy="187.166" r="186.652" transform="rotate(38.5073 220.865 187.166)" stroke="#2F353B" stroke-width="1.5"/>
<circle cx="212.481" cy="187.135" r="186.652" transform="rotate(38.5073 212.481 187.135)" stroke="#2F353B" stroke-width="1.5"/>
<circle cx="204.097" cy="187.105" r="186.652" transform="rotate(38.5073 204.097 187.105)" stroke="#2F353B" stroke-width="1.5"/>
<circle cx="195.712" cy="187.074" r="186.652" transform="rotate(38.5073 195.712 187.074)" stroke="#2F353B" stroke-width="1.5"/>
<circle cx="187.327" cy="187.043" r="186.652" transform="rotate(38.5073 187.327 187.043)" stroke="#2F353B" stroke-width="1.5"/>
</g>
<defs>
<clipPath id="clip0">
<rect width="1680" height="1187" fill="white" transform="translate(-540 -166)"/>
</clipPath>
</defs>
</svg>
