<svg width="593" height="374" fill="none" xmlns="http://www.w3.org/2000/svg">
  <g opacity=".6">
    <circle cx="187.327" cy="186.043" r="186.902" transform="rotate(-141.493 187.327 186.043)" stroke="url(#paint0_linear)"/>
    <circle cx="195.711" cy="186.076" r="186.902" transform="rotate(-141.493 195.711 186.076)" stroke="url(#paint1_linear)"/>
    <circle cx="204.095" cy="186.107" r="186.902" transform="rotate(-141.493 204.095 186.107)" stroke="url(#paint2_linear)"/>
    <circle cx="212.479" cy="186.136" r="186.902" transform="rotate(-141.493 212.479 186.136)" stroke="url(#paint3_linear)"/>
    <circle cx="220.864" cy="186.168" r="186.902" transform="rotate(-141.493 220.864 186.168)" stroke="url(#paint4_linear)"/>
    <circle cx="229.248" cy="186.198" r="186.902" transform="rotate(-141.493 229.248 186.198)" stroke="url(#paint5_linear)"/>
    <circle cx="237.632" cy="186.23" r="186.902" transform="rotate(-141.493 237.632 186.23)" stroke="url(#paint6_linear)"/>
    <circle cx="246.016" cy="186.26" r="186.902" transform="rotate(-141.493 246.016 186.26)" stroke="url(#paint7_linear)"/>
    <circle cx="254.4" cy="186.29" r="186.902" transform="rotate(-141.493 254.4 186.29)" stroke="url(#paint8_linear)"/>
    <circle cx="262.784" cy="186.321" r="186.902" transform="rotate(-141.493 262.784 186.321)" stroke="url(#paint9_linear)"/>
    <circle cx="271.168" cy="186.352" r="186.902" transform="rotate(-141.493 271.168 186.352)" stroke="url(#paint10_linear)"/>
    <circle cx="279.553" cy="186.382" r="186.902" transform="rotate(-141.493 279.553 186.382)" stroke="url(#paint11_linear)"/>
    <circle cx="287.937" cy="186.414" r="186.902" transform="rotate(-141.493 287.937 186.414)" stroke="url(#paint12_linear)"/>
    <circle cx="296.321" cy="186.445" r="186.902" transform="rotate(-141.493 296.321 186.445)" stroke="url(#paint13_linear)"/>
    <circle cx="304.705" cy="186.476" r="186.902" transform="rotate(-141.493 304.705 186.476)" stroke="url(#paint14_linear)"/>
    <circle cx="313.089" cy="186.507" r="186.902" transform="rotate(-141.493 313.089 186.507)" stroke="url(#paint15_linear)"/>
    <circle cx="321.473" cy="186.537" r="186.902" transform="rotate(-141.493 321.473 186.537)" stroke="url(#paint16_linear)"/>
    <circle cx="329.857" cy="186.569" r="186.902" transform="rotate(-141.493 329.857 186.569)" stroke="url(#paint17_linear)"/>
    <circle cx="338.242" cy="186.6" r="186.902" transform="rotate(-141.493 338.242 186.6)" stroke="url(#paint18_linear)"/>
    <circle cx="346.626" cy="186.63" r="186.902" transform="rotate(-141.493 346.626 186.63)" stroke="url(#paint19_linear)"/>
    <circle cx="355.01" cy="186.661" r="186.902" transform="rotate(-141.493 355.01 186.661)" stroke="url(#paint20_linear)"/>
    <circle cx="363.394" cy="186.691" r="186.902" transform="rotate(-141.493 363.394 186.691)" stroke="url(#paint21_linear)"/>
    <circle cx="371.778" cy="186.722" r="186.902" transform="rotate(-141.493 371.778 186.722)" stroke="url(#paint22_linear)"/>
    <circle cx="380.162" cy="186.753" r="186.902" transform="rotate(-141.493 380.162 186.753)" stroke="url(#paint23_linear)"/>
    <circle cx="388.547" cy="186.784" r="186.902" transform="rotate(-141.493 388.547 186.784)" stroke="url(#paint24_linear)"/>
    <circle cx="396.931" cy="186.815" r="186.902" transform="rotate(-141.493 396.931 186.815)" stroke="url(#paint25_linear)"/>
    <circle cx="405.316" cy="186.845" r="186.902" transform="rotate(-141.493 405.316 186.845)" stroke="url(#paint26_linear)"/>
  </g>
  <defs>
    <linearGradient id="paint0_linear" x1="36.258" y1="52.185" x2="340.309" y2="312.253" gradientUnits="userSpaceOnUse">
      <stop offset=".203" stop-color="#B04F77"/>
      <stop offset="1" stop-color="#1680EF" stop-opacity=".06"/>
    </linearGradient>
    <linearGradient id="paint1_linear" x1="44.642" y1="52.217" x2="348.693" y2="312.286" gradientUnits="userSpaceOnUse">
      <stop offset=".203" stop-color="#B04F77"/>
      <stop offset="1" stop-color="#1680EF" stop-opacity=".06"/>
    </linearGradient>
    <linearGradient id="paint2_linear" x1="53.026" y1="52.248" x2="357.077" y2="312.317" gradientUnits="userSpaceOnUse">
      <stop offset=".203" stop-color="#B04F77"/>
      <stop offset="1" stop-color="#1680EF" stop-opacity=".06"/>
    </linearGradient>
    <linearGradient id="paint3_linear" x1="61.41" y1="52.277" x2="365.461" y2="312.346" gradientUnits="userSpaceOnUse">
      <stop offset=".203" stop-color="#B04F77"/>
      <stop offset="1" stop-color="#1680EF" stop-opacity=".06"/>
    </linearGradient>
    <linearGradient id="paint4_linear" x1="69.794" y1="52.309" x2="373.845" y2="312.378" gradientUnits="userSpaceOnUse">
      <stop offset=".203" stop-color="#B04F77"/>
      <stop offset="1" stop-color="#1680EF" stop-opacity=".06"/>
    </linearGradient>
    <linearGradient id="paint5_linear" x1="78.179" y1="52.339" x2="382.229" y2="312.407" gradientUnits="userSpaceOnUse">
      <stop offset=".203" stop-color="#B04F77"/>
      <stop offset="1" stop-color="#1680EF" stop-opacity=".06"/>
    </linearGradient>
    <linearGradient id="paint6_linear" x1="86.563" y1="52.371" x2="390.613" y2="312.439" gradientUnits="userSpaceOnUse">
      <stop offset=".203" stop-color="#B04F77"/>
      <stop offset="1" stop-color="#1680EF" stop-opacity=".06"/>
    </linearGradient>
    <linearGradient id="paint7_linear" x1="94.947" y1="52.401" x2="398.998" y2="312.469" gradientUnits="userSpaceOnUse">
      <stop offset=".203" stop-color="#B04F77"/>
      <stop offset="1" stop-color="#1680EF" stop-opacity=".06"/>
    </linearGradient>
    <linearGradient id="paint8_linear" x1="103.331" y1="52.432" x2="407.381" y2="312.5" gradientUnits="userSpaceOnUse">
      <stop offset=".203" stop-color="#B04F77"/>
      <stop offset="1" stop-color="#1680EF" stop-opacity=".06"/>
    </linearGradient>
    <linearGradient id="paint9_linear" x1="111.715" y1="52.463" x2="415.766" y2="312.531" gradientUnits="userSpaceOnUse">
      <stop offset=".203" stop-color="#B04F77"/>
      <stop offset="1" stop-color="#1680EF" stop-opacity=".06"/>
    </linearGradient>
    <linearGradient id="paint10_linear" x1="120.099" y1="52.494" x2="424.15" y2="312.562" gradientUnits="userSpaceOnUse">
      <stop offset=".203" stop-color="#B04F77"/>
      <stop offset="1" stop-color="#1680EF" stop-opacity=".06"/>
    </linearGradient>
    <linearGradient id="paint11_linear" x1="128.484" y1="52.524" x2="432.534" y2="312.592" gradientUnits="userSpaceOnUse">
      <stop offset=".203" stop-color="#B04F77"/>
      <stop offset="1" stop-color="#1680EF" stop-opacity=".06"/>
    </linearGradient>
    <linearGradient id="paint12_linear" x1="136.867" y1="52.556" x2="440.918" y2="312.624" gradientUnits="userSpaceOnUse">
      <stop offset=".203" stop-color="#B04F77"/>
      <stop offset="1" stop-color="#1680EF" stop-opacity=".06"/>
    </linearGradient>
    <linearGradient id="paint13_linear" x1="145.251" y1="52.586" x2="449.302" y2="312.655" gradientUnits="userSpaceOnUse">
      <stop offset=".203" stop-color="#B04F77"/>
      <stop offset="1" stop-color="#1680EF" stop-opacity=".06"/>
    </linearGradient>
    <linearGradient id="paint14_linear" x1="153.636" y1="52.617" x2="457.687" y2="312.686" gradientUnits="userSpaceOnUse">
      <stop offset=".203" stop-color="#B04F77"/>
      <stop offset="1" stop-color="#1680EF" stop-opacity=".06"/>
    </linearGradient>
    <linearGradient id="paint15_linear" x1="162.02" y1="52.648" x2="466.071" y2="312.717" gradientUnits="userSpaceOnUse">
      <stop offset=".203" stop-color="#B04F77"/>
      <stop offset="1" stop-color="#1680EF" stop-opacity=".06"/>
    </linearGradient>
    <linearGradient id="paint16_linear" x1="170.404" y1="52.678" x2="474.455" y2="312.746" gradientUnits="userSpaceOnUse">
      <stop offset=".203" stop-color="#B04F77"/>
      <stop offset="1" stop-color="#1680EF" stop-opacity=".06"/>
    </linearGradient>
    <linearGradient id="paint17_linear" x1="178.788" y1="52.71" x2="482.839" y2="312.778" gradientUnits="userSpaceOnUse">
      <stop offset=".203" stop-color="#B04F77"/>
      <stop offset="1" stop-color="#1680EF" stop-opacity=".06"/>
    </linearGradient>
    <linearGradient id="paint18_linear" x1="187.172" y1="52.741" x2="491.223" y2="312.809" gradientUnits="userSpaceOnUse">
      <stop offset=".203" stop-color="#B04F77"/>
      <stop offset="1" stop-color="#1680EF" stop-opacity=".06"/>
    </linearGradient>
    <linearGradient id="paint19_linear" x1="195.557" y1="52.771" x2="499.607" y2="312.839" gradientUnits="userSpaceOnUse">
      <stop offset=".203" stop-color="#B04F77"/>
      <stop offset="1" stop-color="#1680EF" stop-opacity=".06"/>
    </linearGradient>
    <linearGradient id="paint20_linear" x1="203.941" y1="52.802" x2="507.992" y2="312.87" gradientUnits="userSpaceOnUse">
      <stop offset=".203" stop-color="#B04F77"/>
      <stop offset="1" stop-color="#1680EF" stop-opacity=".06"/>
    </linearGradient>
    <linearGradient id="paint21_linear" x1="212.325" y1="52.833" x2="516.376" y2="312.901" gradientUnits="userSpaceOnUse">
      <stop offset=".203" stop-color="#B04F77"/>
      <stop offset="1" stop-color="#1680EF" stop-opacity=".06"/>
    </linearGradient>
    <linearGradient id="paint22_linear" x1="220.709" y1="52.864" x2="524.759" y2="312.932" gradientUnits="userSpaceOnUse">
      <stop offset=".203" stop-color="#B04F77"/>
      <stop offset="1" stop-color="#1680EF" stop-opacity=".06"/>
    </linearGradient>
    <linearGradient id="paint23_linear" x1="229.093" y1="52.894" x2="533.144" y2="312.963" gradientUnits="userSpaceOnUse">
      <stop offset=".203" stop-color="#B04F77"/>
      <stop offset="1" stop-color="#1680EF" stop-opacity=".06"/>
    </linearGradient>
    <linearGradient id="paint24_linear" x1="237.477" y1="52.925" x2="541.528" y2="312.993" gradientUnits="userSpaceOnUse">
      <stop offset=".203" stop-color="#B04F77"/>
      <stop offset="1" stop-color="#1680EF" stop-opacity=".06"/>
    </linearGradient>
    <linearGradient id="paint25_linear" x1="245.862" y1="52.956" x2="549.912" y2="313.025" gradientUnits="userSpaceOnUse">
      <stop offset=".203" stop-color="#B04F77"/>
      <stop offset="1" stop-color="#1680EF" stop-opacity=".06"/>
    </linearGradient>
    <linearGradient id="paint26_linear" x1="254.247" y1="52.987" x2="558.298" y2="313.055" gradientUnits="userSpaceOnUse">
      <stop offset=".203" stop-color="#B04F77"/>
      <stop offset="1" stop-color="#1680EF" stop-opacity=".06"/>
    </linearGradient>
  </defs>
</svg>
