<?xml version="1.0" standalone="no"?>
<!DOCTYPE svg PUBLIC "-//W3C//DTD SVG 20010904//EN"
 "http://www.w3.org/TR/2001/REC-SVG-20010904/DTD/svg10.dtd">
<svg version="1.0" xmlns="http://www.w3.org/2000/svg"
 width="310.000000pt" height="310.000000pt" viewBox="0 0 310.000000 310.000000"
 preserveAspectRatio="xMidYMid meet">
<metadata>
Created by potrace 1.11, written by Peter Selinger 2001-2013
</metadata>
<g transform="translate(0.000000,310.000000) scale(0.100000,-0.100000)"
fill="#000000" stroke="none">
<path d="M1423 3058 c-188 -16 -345 -57 -508 -134 -72 -33 -222 -119 -235
-133 -3 -4 -32 -26 -65 -51 -118 -90 -236 -217 -327 -355 -108 -162 -194 -372
-224 -545 -3 -14 -7 -32 -9 -40 -8 -29 -18 -166 -19 -245 -1 -577 323 -1101
839 -1359 105 -53 261 -109 335 -121 19 -3 51 -10 70 -15 106 -27 379 -31 510
-6 14 3 37 7 51 10 114 19 311 89 417 147 61 34 154 90 162 99 3 3 31 25 63
48 136 102 303 298 395 463 66 120 137 317 158 439 3 14 7 30 9 37 7 21 19
184 19 258 -2 396 -159 779 -435 1055 -102 102 -127 123 -238 198 -278 189
-628 280 -968 250z m265 -82 c615 -53 1146 -532 1265 -1141 23 -117 28 -167
28 -285 1 -215 -45 -421 -138 -619 -120 -255 -362 -509 -615 -644 -134 -71
-312 -131 -458 -153 -25 -3 -54 -8 -65 -10 -36 -7 -248 -7 -305 0 -487 60
-886 331 -1118 757 -64 120 -131 319 -147 442 -19 138 -22 262 -11 372 30 289
152 571 344 794 55 64 99 106 197 189 23 19 125 88 170 114 162 94 379 164
570 184 33 3 61 6 62 7 3 4 151 -1 221 -7z"/>
<path d="M1440 2862 c-70 -6 -204 -34 -284 -59 -202 -63 -375 -171 -536 -333
-322 -323 -449 -759 -354 -1215 90 -430 429 -812 850 -960 157 -54 281 -73
464 -70 91 2 176 6 190 9 14 4 36 9 50 11 86 14 224 62 335 118 239 119 464
345 588 592 56 113 103 256 123 380 10 59 13 321 4 375 -20 132 -46 234 -83
322 -204 498 -673 823 -1201 831 -61 1 -127 1 -146 -1z"/>
</g>
</svg>
