<svg width="18" height="18" viewBox="0 0 18 18" fill="none" xmlns="http://www.w3.org/2000/svg">
<g id="noun_Arrow_2841510 Copy">
<path id="Shape" fill-rule="evenodd" clip-rule="evenodd" d="M8.95623 13.4608C9.06463 13.3888 9.17302 13.3168 9.28114 13.2444L9.36498 13.2755C9.36752 13.3948 9.37024 13.5141 9.37295 13.6334V13.6334V13.6334V13.6335V13.6335V13.6335V13.6335V13.6335V13.6335C9.37912 13.9043 9.38528 14.175 9.38941 14.4458C9.39597 14.8751 9.49354 14.9481 9.90735 15.0583C10.2824 15.1623 10.6449 15.3073 10.9882 15.4908C11.2693 15.6378 11.4067 15.6512 11.6236 15.4043C11.6859 15.3335 11.7478 15.2624 11.8097 15.1914C11.9028 15.0847 11.9958 14.9779 12.0898 14.872C12.2331 14.7106 12.3769 14.5496 12.5208 14.3886L12.5208 14.3886L12.5209 14.3885L12.5209 14.3885L12.521 14.3884L12.521 14.3884L12.5211 14.3883L12.5211 14.3883L12.5212 14.3882L12.5212 14.3882L12.5212 14.3882L12.5212 14.3881L12.5212 14.3881L12.5213 14.3881L12.5213 14.3881L12.5213 14.3881L12.5213 14.388C12.8008 14.0753 13.0802 13.7625 13.3557 13.4463C13.4838 13.2993 13.6075 13.1485 13.7311 12.9978C13.8792 12.8173 14.0272 12.6369 14.1826 12.463C14.3363 12.2911 14.4966 12.1245 14.6568 11.958C14.9155 11.689 15.1741 11.4202 15.405 11.1292C16.0467 10.3241 16.7502 9.57025 17.5091 8.87455C17.7919 8.61396 17.7586 8.26926 17.4267 8.09899C17.3544 8.06624 17.2885 8.0209 17.2321 7.9651C17.1229 7.8436 17.0132 7.72246 16.9036 7.60132C16.534 7.1932 16.1644 6.785 15.812 6.36254C15.5038 5.99306 15.2108 5.61077 14.9179 5.22849C14.7947 5.06757 14.6714 4.90666 14.5469 4.7467C14.4043 4.56339 14.2621 4.37981 14.1198 4.19622L14.1198 4.19617L14.1197 4.19603C13.8555 3.85507 13.5913 3.51412 13.3249 3.17492C13.2055 3.02289 13.0835 2.8728 12.9616 2.72273L12.9616 2.72267L12.9616 2.72266L12.9615 2.72266L12.9615 2.72265L12.9615 2.72264L12.9615 2.72263L12.9615 2.72263L12.9615 2.72262L12.9615 2.72261C12.8067 2.53207 12.6519 2.34154 12.5023 2.14703C12.2452 1.83741 12.0099 1.51032 11.798 1.16812C11.7306 1.02006 11.6039 0.907207 11.4491 0.857163C11.2943 0.807119 11.1256 0.824499 10.9842 0.905051C10.7141 1.07936 10.4338 1.23758 10.145 1.37888C9.74534 1.55918 9.53594 1.81828 9.54883 2.28071C9.55793 2.60687 9.53695 2.93384 9.51597 3.26086L9.51597 3.2609L9.51596 3.26093L9.51596 3.26097L9.51596 3.26101L9.51595 3.26105L9.51595 3.26109L9.51595 3.26113L9.51595 3.26117C9.50609 3.41487 9.49622 3.56858 9.48949 3.72222C9.48262 3.8789 9.43908 3.96945 9.26711 3.86638C9.15139 3.79702 9.03576 3.72749 8.92013 3.65797L8.9199 3.65783C8.67064 3.50795 8.42137 3.35808 8.17115 3.20981C7.95445 3.0814 7.73627 2.95529 7.5158 2.83348C7.33526 2.73373 7.15382 2.63554 6.9724 2.53735C6.6318 2.35302 6.29122 2.1687 5.95659 1.97412C5.74556 1.85142 5.54307 1.71415 5.34054 1.57684L5.34051 1.57682L5.3405 1.57681C5.22575 1.49902 5.11099 1.42121 4.99464 1.34604C4.86501 1.26228 4.7355 1.17829 4.60599 1.09431L4.60591 1.09425L4.60523 1.09381C4.07103 0.747377 3.5368 0.400924 2.99314 0.0700121C2.84874 0.00259205 2.68653 -0.0167886 2.53031 0.0147118C2.46699 0.0241102 2.411 0.0717258 2.35374 0.12041C2.31358 0.15456 2.2728 0.189236 2.22845 0.211615C2.09782 0.277519 1.96747 0.34413 1.83711 0.410748C1.38788 0.640324 0.938478 0.869985 0.476732 1.07107C0.100698 1.23483 0.033638 1.27476 0.0500717 1.67828C0.0510216 1.70158 0.0495338 1.72497 0.0480442 1.74836C0.0472984 1.7601 0.0465527 1.77183 0.046114 1.78355C0.0410042 1.92045 0.0343361 2.05736 0.027668 2.19426L0.0276623 2.19436C0.0128307 2.49891 -0.00200081 2.80347 0.000329971 3.10789C0.00495529 3.71132 0.022028 4.31467 0.0391006 4.918V4.91809V4.91818V4.91827V4.91835V4.91844V4.91853V4.91862V4.91871C0.0441856 5.09821 0.0492706 5.27772 0.0540276 5.45722C0.055582 5.51597 0.0628548 5.57453 0.0701313 5.63313C0.0757771 5.67859 0.0814247 5.72407 0.0844059 5.76968C0.0955029 5.93934 0.107542 6.10898 0.119581 6.27862L0.119587 6.27873L0.119593 6.27884L0.119598 6.27895L0.119604 6.27906L0.11961 6.27917L0.119616 6.27928L0.119621 6.27939L0.119627 6.2795L0.119633 6.27955C0.151516 6.72903 0.183399 7.17852 0.197861 7.62857C0.205124 7.85454 0.190584 8.08109 0.176035 8.30776V8.30778V8.3078V8.30782V8.30785V8.30787V8.30789V8.30792V8.30794C0.166616 8.45462 0.157194 8.60135 0.153683 8.74802C0.137754 9.41377 0.12653 10.0796 0.115307 10.7455L0.108414 11.152C0.105017 11.35 0.100985 11.548 0.0969524 11.7459V11.746V11.746V11.746V11.7461V11.7461V11.7462V11.7462V11.7462C0.0861874 12.2749 0.0754223 12.8037 0.0767574 13.3323C0.0787525 14.1244 0.084074 14.9174 0.130707 15.7075C0.156332 15.9203 0.26531 16.1143 0.433752 16.247C0.692921 16.4316 0.969053 16.592 1.24537 16.7525L1.24541 16.7526L1.24548 16.7526L1.24556 16.7527L1.24563 16.7527L1.24571 16.7527L1.24578 16.7528L1.24586 16.7528L1.24593 16.7529L1.246 16.7529C1.42039 16.8542 1.59484 16.9556 1.76514 17.0631C1.86623 17.1269 1.95814 17.2051 2.05011 17.2833C2.13001 17.3512 2.20997 17.4192 2.29606 17.4778C2.54002 17.6442 2.95976 17.7604 3.25344 17.4561C3.56688 17.1506 3.90937 16.8765 4.27604 16.6376C4.60614 16.4085 4.94313 16.1893 5.28013 15.9702C5.55797 15.7895 5.83582 15.6089 6.10983 15.4226C6.53719 15.1321 6.9606 14.8357 7.38402 14.5394L7.38421 14.5393C7.66994 14.3393 7.95567 14.1393 8.24263 13.9411C8.47854 13.7782 8.71738 13.6195 8.95623 13.4608ZM2.93173 1.26399V1.26396V1.26393V1.2639V1.26387V1.26384V1.2638V1.26377V1.26374C2.93346 1.07439 2.93522 0.882243 2.93522 0.686081C3.01577 0.733795 3.09173 0.777989 3.16435 0.820237L3.1646 0.820382L3.16463 0.820396L3.16464 0.820401C3.31306 0.906747 3.44753 0.984973 3.5786 1.06853C3.94254 1.30054 4.30565 1.53387 4.66876 1.76721C5.10172 2.04543 5.53467 2.32365 5.96905 2.59963L6.11112 2.6899L6.11113 2.68991L6.11114 2.68991L6.11115 2.68992L6.11117 2.68993C6.82648 3.14448 7.54189 3.5991 8.26527 4.04058C8.65113 4.27606 9.04584 4.49714 9.44049 4.71818L9.44097 4.71845C9.55573 4.78274 9.6705 4.84702 9.78504 4.91165C9.84873 4.94759 9.91234 4.98371 9.97596 5.01983L9.97623 5.01998C10.2694 5.18645 10.5628 5.35301 10.8645 5.50239C11.14 5.6388 11.2065 5.5675 11.4032 5.35663L11.4123 5.34684C11.592 5.15424 11.5903 4.96223 11.5883 4.74353L11.5879 4.69047C11.5871 4.47376 11.5968 4.25691 11.6065 4.04012L11.6065 4.0401C11.6183 3.77745 11.6301 3.51487 11.6231 3.25271C11.6143 2.92266 11.5825 2.59322 11.5507 2.26376C11.5356 2.10774 11.5206 1.95172 11.508 1.79561C11.5073 1.78745 11.5148 1.77862 11.5258 1.76575C11.5322 1.75829 11.5397 1.74946 11.5474 1.73862C12.3727 2.68815 13.1325 3.68966 13.893 4.69228C14.9037 6.02457 15.9158 7.35882 17.0853 8.57565L11.6747 14.6597L11.5706 14.6207C11.5507 14.4885 11.5291 14.3564 11.5075 14.2243L11.5075 14.2242L11.5075 14.2242L11.5075 14.2242L11.5075 14.2242L11.5075 14.2242L11.5075 14.2242L11.5075 14.2242L11.5075 14.2242C11.4581 13.9213 11.4086 13.6185 11.3786 13.3137C11.3594 13.1176 11.3545 12.92 11.3496 12.7225V12.7225C11.3444 12.5126 11.3392 12.3028 11.3168 12.0948C11.2982 11.9341 11.2162 11.7873 11.0892 11.687C11.0037 11.6324 10.7966 11.6934 10.6851 11.7661C9.81764 12.3347 8.955 12.9104 8.09713 13.4932C7.89698 13.6292 7.7013 13.7717 7.50562 13.9143L7.50559 13.9143L7.50556 13.9144L7.50554 13.9144L7.50551 13.9144L7.50548 13.9144L7.50546 13.9144L7.50543 13.9144L7.50541 13.9145L7.50538 13.9145C7.30466 14.0607 7.10394 14.207 6.89839 14.3461C6.70289 14.4784 6.50259 14.6036 6.30228 14.7289L6.30226 14.7289L6.30223 14.7289L6.3022 14.7289L6.30218 14.7289L6.30215 14.7289L6.30213 14.729L6.3021 14.729L6.30208 14.729L6.30205 14.729C6.09581 14.8579 5.88958 14.9869 5.68861 15.1236C5.39451 15.3235 5.10597 15.5317 4.81743 15.7399L4.81742 15.7399L4.81742 15.7399L4.81741 15.7399L4.8174 15.7399L4.8174 15.7399L4.81739 15.7399L4.81739 15.7399L4.81738 15.7399L4.81736 15.7399L4.81734 15.7399L4.81731 15.74L4.81729 15.74L4.81727 15.74L4.81724 15.74L4.81722 15.74L4.8172 15.74C4.65168 15.8594 4.48615 15.9789 4.31957 16.0967C4.00816 16.3171 3.69558 16.5358 3.36237 16.769C3.21105 16.8749 3.05547 16.9837 2.89381 17.0971C2.89381 17.0202 2.89361 16.9539 2.89343 16.8945V16.8944V16.8944V16.8944V16.8943V16.8943V16.8943V16.8942V16.8942C2.89309 16.7833 2.89283 16.6965 2.89409 16.6097L2.89926 16.2528C2.90742 15.6871 2.91557 15.1214 2.926 14.5558C2.94474 13.5532 2.9647 12.5506 2.98588 11.5481C2.99829 10.9485 3.01279 10.349 3.02939 9.74957C3.03791 9.44211 3.04752 9.13468 3.05713 8.82725V8.82723V8.82722V8.8272V8.82719V8.82717V8.82716V8.82715V8.82713C3.07008 8.41281 3.08303 7.99849 3.0933 7.5841C3.10236 7.21888 3.10193 6.85335 3.10096 6.48797L3.10072 6.29458C3.10056 5.99608 3.1004 5.69745 3.08658 5.39953C3.06795 4.99781 3.04586 4.59624 3.02377 4.19467L3.02376 4.19455L3.02376 4.19442L3.02375 4.19429L3.02374 4.19417L3.02374 4.19404L3.02373 4.19392L3.02373 4.19379L3.02372 4.19367C2.9922 3.62073 2.96068 3.0478 2.93921 2.47449C2.92429 2.07597 2.92795 1.67676 2.93173 1.26428V1.26424V1.26421V1.26417V1.26414V1.2641V1.26406V1.26403V1.26399ZM1.99836 0.903191C1.75932 0.955713 1.71999 1.11766 1.72551 1.31476C1.72951 1.45764 1.73377 1.60052 1.73804 1.7434L1.73804 1.74348L1.73805 1.74356L1.73805 1.74364L1.73805 1.74372L1.73805 1.7438L1.73806 1.74388L1.73806 1.74396L1.73806 1.74404C1.75185 2.20573 1.76564 2.66744 1.77057 3.12924C1.77466 3.5132 1.77369 3.8972 1.77272 4.2812C1.77186 4.62364 1.771 4.96608 1.77372 5.30848C1.7754 5.5189 1.7823 5.72934 1.78921 5.93976V5.93978V5.93981V5.93983V5.93986V5.93988V5.93991V5.93993V5.93996V5.93999V5.94002V5.94005V5.94008V5.94011V5.94014C1.7988 6.23258 1.80839 6.52497 1.80394 6.8172C1.79824 7.1911 1.78436 7.5649 1.77048 7.93869L1.77048 7.93875L1.77048 7.93882C1.75408 8.38052 1.73768 8.8222 1.73478 9.264C1.73168 9.73674 1.74409 10.2096 1.75651 10.6824C1.76443 10.9839 1.77234 11.2855 1.77624 11.587C1.77753 11.6869 1.76738 11.7869 1.75723 11.8869V11.887V11.887V11.887V11.887V11.887V11.887V11.887C1.74732 11.9847 1.7374 12.0824 1.73814 12.18C1.74472 13.0573 1.75625 13.9345 1.77271 14.8116C1.77948 15.1858 1.79109 15.5599 1.8027 15.934C1.80806 16.107 1.81343 16.28 1.81832 16.453C1.81878 16.4693 1.81866 16.4856 1.81853 16.503L1.8184 16.529L2.03445 16.611C2.04255 16.5455 2.05177 16.4818 2.06082 16.4191L2.06083 16.4191C2.08012 16.2857 2.09867 16.1574 2.10417 16.0285C2.13111 15.3969 2.15082 14.7648 2.1678 14.1328C2.18291 13.5703 2.19393 13.0077 2.20086 12.445C2.20494 12.134 2.2053 11.823 2.20565 11.512V11.5117C2.20581 11.3735 2.20597 11.2353 2.20645 11.0971C2.20697 10.9501 2.20874 10.8031 2.21051 10.6561C2.21453 10.3221 2.21855 9.98801 2.20786 9.65442C2.19991 9.40645 2.18165 9.15878 2.16339 8.91112C2.14379 8.6453 2.1242 8.3795 2.11735 8.11335C2.1087 7.77678 2.11031 7.43995 2.11192 7.10312C2.11348 6.77515 2.11505 6.44719 2.10715 6.11946C2.09375 5.56441 2.07179 5.00959 2.04983 4.45475L2.04983 4.45468L2.04983 4.45461L2.04982 4.45454L2.04982 4.45447L2.04982 4.4544L2.04982 4.45433L2.04981 4.45426L2.0498 4.45387L2.04978 4.45349L2.04977 4.4531L2.04976 4.45272L2.04974 4.45233C2.03582 4.10069 2.0219 3.74904 2.01017 3.39734C1.99057 2.80956 1.97484 2.22157 1.96669 1.63354C1.96453 1.47811 1.97403 1.32251 1.98429 1.15443C1.9892 1.074 1.99429 0.990698 1.99836 0.903191ZM1.47971 16.1423L1.3574 16.1692C1.34584 16.1495 1.33149 16.13 1.31713 16.1106L1.31712 16.1105C1.28623 16.0686 1.25533 16.0266 1.25232 15.9828C1.24327 15.8515 1.23402 15.7203 1.22477 15.5891C1.17907 14.941 1.13336 14.2926 1.11274 13.6436C1.10433 13.3791 1.12069 13.1139 1.13705 12.8486L1.13706 12.8486L1.13706 12.8485C1.14864 12.6608 1.16022 12.473 1.16304 12.2853C1.16629 12.0693 1.16086 11.8531 1.15544 11.6369C1.15004 11.422 1.14465 11.207 1.14778 10.9922C1.15055 10.8016 1.16177 10.6111 1.173 10.4206C1.18643 10.1925 1.19987 9.96446 1.19879 9.73644C1.19793 9.5542 1.18021 9.37211 1.16249 9.18996C1.14665 9.02721 1.13082 8.86441 1.12699 8.70142C1.11875 8.35018 1.12162 7.99868 1.12448 7.64718L1.12449 7.64639C1.12585 7.47875 1.12722 7.31111 1.12738 7.1435C1.12743 7.08941 1.12477 7.03532 1.12212 6.98122V6.9812V6.98118V6.98116V6.98113V6.98111V6.98109L1.1221 6.98081L1.12209 6.98052L1.12208 6.98024C1.12047 6.94736 1.11885 6.91448 1.11786 6.8816C1.09922 6.24676 1.08006 5.61193 1.06037 4.97712C1.0561 4.83942 1.05061 4.70173 1.04513 4.56404V4.56399V4.56395V4.5639V4.56386V4.56381V4.56377C1.03435 4.29333 1.02357 4.0229 1.02201 3.75241C1.0181 3.0745 1.01966 2.39632 1.03646 1.71868C1.02497 1.62583 1.05554 1.53269 1.11982 1.4647C1.18411 1.39672 1.27539 1.36099 1.36875 1.36728C1.48298 4.4022 1.47442 7.43493 1.46586 10.4665V10.4668C1.46052 12.359 1.45518 14.2507 1.47971 16.1423ZM0.740099 12.2127L0.855526 12.2098C0.898132 9.4409 0.816429 6.67342 0.734596 3.90153V3.90151V3.90149V3.90146V3.90144V3.90141C0.713236 3.1779 0.691868 2.45408 0.672699 1.72985C0.587875 1.87426 0.535048 2.03519 0.517782 2.20177C0.509699 2.75068 0.520536 3.30023 0.538429 3.84908C0.552111 4.26851 0.569521 4.68783 0.586931 5.10715L0.586937 5.10722C0.609732 5.65629 0.632524 6.20535 0.646948 6.75464C0.658569 7.19739 0.66066 7.64037 0.66275 8.08336V8.08362C0.664482 8.45098 0.666214 8.81835 0.67338 9.18559C0.680313 9.54083 0.694218 9.89593 0.708124 10.251C0.719469 10.5408 0.730814 10.8305 0.738373 11.1203C0.744926 11.3712 0.743263 11.6224 0.741598 11.8736C0.740849 11.9866 0.740099 12.0997 0.740099 12.2127ZM2.25098 1.15338C2.24533 0.991754 2.23894 0.809072 2.43689 0.739666C2.63771 3.06719 2.57492 5.38902 2.51311 7.67469L2.5131 7.67476C2.49801 8.23295 2.48297 8.78897 2.47185 9.3424C2.46211 9.24607 2.45018 9.14406 2.43778 9.038C2.40814 8.78455 2.37581 8.50797 2.36415 8.23051C2.35071 7.91071 2.35308 7.59026 2.35546 7.26979V7.26977V7.26976V7.26975V7.26974L2.35547 7.26953C2.35668 7.10565 2.3579 6.94177 2.357 6.77797C2.35591 6.58092 2.34933 6.38384 2.34172 6.18691C2.33215 5.93921 2.32146 5.69154 2.31076 5.44386V5.44383V5.4438V5.44377V5.44374C2.28805 4.91788 2.26534 4.39203 2.2534 3.86592C2.24609 3.54395 2.2565 3.22157 2.26691 2.89921V2.89919V2.89916V2.89914L2.26692 2.89902V2.89899V2.89896V2.89893V2.8989C2.27128 2.76386 2.27564 2.62883 2.2787 2.49383C2.2792 2.4716 2.28351 2.44814 2.28778 2.42487C2.29528 2.38401 2.30267 2.34375 2.28918 2.31175C2.18274 2.05929 2.20703 1.80327 2.23131 1.54748C2.24351 1.41892 2.2557 1.29041 2.25129 1.16244L2.25098 1.15338ZM10.2104 4.44704L10.3341 4.38915L10.1978 1.98407L10.1298 1.98238C10.1134 2.01984 10.1014 2.05905 10.0939 2.09925C10.0829 2.25172 10.0712 2.40418 10.0594 2.55664L10.0594 2.55683C10.0219 3.04294 9.98443 3.52909 9.97301 4.01584C9.97073 4.11293 10.0438 4.21179 10.1168 4.31065C10.1505 4.35617 10.1841 4.40169 10.2104 4.44704ZM0.868536 15.7981L0.746504 15.8157C0.705048 15.7167 0.677895 15.6123 0.665859 15.5056C0.690922 14.7358 0.727608 13.9664 0.771235 13.1971C0.869553 14.0604 0.902081 14.9299 0.868536 15.7981ZM9.87195 14.389L9.96806 14.4242C9.97899 14.4122 9.99282 14.4002 10.0066 14.3882L10.0066 14.3882C10.0364 14.3625 10.0661 14.3367 10.067 14.31C10.103 13.8127 10.0366 13.3132 9.87195 12.8425V14.389ZM10.7498 4.19267L10.6636 4.19948L10.5716 2.08694L10.6486 2.0842L10.7498 4.19267Z" fill="#202428"/>
</g>
</svg>
