<svg width="102" height="42" viewBox="0 0 102 42" fill="none" xmlns="http://www.w3.org/2000/svg">
<path d="M83.9979 0L84.0022 0.00613313C80.1704 0.00613313 79.5587 2.57988 79.4885 3.84042V31.7433L82.1998 31.7418C84.3714 31.7858 84.8748 30.3965 84.8982 29.6136V29.4015C86.6002 31.1902 88.9384 32.2126 91.5742 32.2126C97.3189 32.2126 102 27.2632 102 20.7783C102 14.2505 97.3189 9.30106 91.5742 9.30106C89.0633 9.30106 86.8082 10.2398 85.1487 11.8611V0H83.9979ZM85.1487 20.8209C85.1487 17.3225 87.6592 14.5066 90.7657 14.5066C93.8721 14.5066 96.3827 17.237 96.3827 20.8209C96.3827 24.3193 93.8721 27.0074 90.7657 27.0074C87.6592 27.0074 85.1487 24.2341 85.1487 20.8209ZM16.8517 12.3301C15.2774 10.4104 12.8518 9.21556 9.87273 9.21556C3.87288 9.21556 0 13.4398 0 19.0289V31.7433H1.83011C3.07513 31.6664 5.53315 31.0473 5.61735 27.4053V18.9008C5.61735 16.4263 7.36218 14.7199 9.87273 14.7199C13.5751 14.7199 13.9579 17.6638 13.9579 18.9008V31.7433H15.7902C17.0302 31.6668 19.4734 31.0513 19.5753 27.4457V18.9008C19.5753 16.4263 21.3626 14.7199 23.8306 14.7199C27.533 14.7199 27.9586 17.6638 27.9586 18.9008V31.7433H29.7862C31.0377 31.666 33.517 31.043 33.5756 27.348V19.0289C33.5756 13.2692 29.9586 9.21556 23.8306 9.21556C20.9797 9.21556 18.5116 10.4104 16.8517 12.3301ZM55.5845 20.7783C55.5845 27.3483 60.5206 32.2552 66.6061 32.2552C72.6909 32.2552 77.6699 27.3483 77.6699 20.7783C77.6699 14.2079 72.6909 9.21592 66.6061 9.21592C60.5206 9.21592 55.5845 14.2079 55.5845 20.7783ZM61.2018 20.8209C61.2018 17.0238 63.6271 14.3782 66.6061 14.3782C69.5848 14.3782 72.0105 17.0238 72.0105 20.8209C72.0105 24.5329 69.5848 27.0925 66.6061 27.0925C63.6271 27.0925 61.2018 24.5329 61.2018 20.8209ZM49.7678 12.206L45.0449 25.3276L39.9073 11.7413C39.1304 9.59077 37.1002 9.70838 37.1002 9.70838H32.7254L41.4322 31.0556C41.4247 31.0322 41.42 31.0123 41.4117 30.9885C41.4132 30.9925 41.4286 31.0343 41.4441 31.0762C41.4599 31.1191 41.4754 31.1613 41.4765 31.1642L41.4322 31.0556C41.7179 31.924 41.6341 32.4074 41.3732 33.2448L41.1825 33.7859C40.1714 36.3088 38.7464 36.9932 35.7127 36.8222V36.8402L37.8177 42C41.7147 41.9141 44.647 40.6388 46.6063 35.7529L57.085 9.71054L57.086 9.70838L53.1667 9.70585C53.1667 9.70585 53.161 9.70549 53.1505 9.70549C52.9393 9.70549 50.708 9.76393 49.7678 12.206Z" fill="white"/>
</svg>
